PathFileType  4	(X/Y/Z) C:\Users\antoi\Documents\MyRepositories\mobilecap\ResultsAnalysis
DataRate	CameraRate	NumFrames	NumMarkers	Units	OrigDataRate	OrigDataStartFrame	OrigNumFrames
100.0	100.0	6	51	mm	100.0	1	234
Frame#	Time	r_knee			r_shank_antsup			r_ankle			r_calc			r_5meta			r_toe			L_knee			L_shank_antsup			L_ankle			L_calc			L_5meta			L_toe			r_sh2			r_sh3			r_sh4			L_sh2			L_sh3			r_thigh1			r_thigh2			r_thigh3			r_thigh4			r_thigh5			L_thigh1			L_thigh2			L_thigh3			L_thigh4			r.ASIS			r.PSIS			L.ASIS			L.PSIS			C7			R_Shoulder			L_Shoulder			R_Sternum			L_Sternum			R_humerus			R_elbow_med			R_elbow_lat			R_forearm			R_wrist_radius			R_wrist_ulna			L_humerus			L_elbow_med			L_elbow_lat			L_forearm			L_wrist_radius			L_wrist_ulna			R_HJC			L_HJC			R_HJC_reg			L_HJC_reg			
		X1	Y1	Z1	X2	Y2	Z2	X3	Y3	Z3	X4	Y4	Z4	X5	Y5	Z5	X6	Y6	Z6	X7	Y7	Z7	X8	Y8	Z8	X9	Y9	Z9	X10	Y10	Z10	X11	Y11	Z11	X12	Y12	Z12	X13	Y13	Z13	X14	Y14	Z14	X15	Y15	Z15	X16	Y16	Z16	X17	Y17	Z17	X18	Y18	Z18	X19	Y19	Z19	X20	Y20	Z20	X21	Y21	Z21	X22	Y22	Z22	X23	Y23	Z23	X24	Y24	Z24	X25	Y25	Z25	X26	Y26	Z26	X27	Y27	Z27	X28	Y28	Z28	X29	Y29	Z29	X30	Y30	Z30	X31	Y31	Z31	X32	Y32	Z32	X33	Y33	Z33	X34	Y34	Z34	X35	Y35	Z35	X36	Y36	Z36	X37	Y37	Z37	X38	Y38	Z38	X39	Y39	Z39	X40	Y40	Z40	X41	Y41	Z41	X42	Y42	Z42	X43	Y43	Z43	X44	Y44	Z44	X45	Y45	Z45	X46	Y46	Z46	X47	Y47	Z47	X48	Y48	Z48	X49	Y49	Z49	X50	Y50	Z50	X51	Y51	Z51	

1	0.00000000	-1196.33006	803.95604	-458.87685	-1161.55344	734.63236	-473.96435	-1263.85461	405.63179	-456.98360	-1335.18157	371.57876	-488.54102	-1159.91516	352.73990	-424.72822	-1115.68933	377.82616	-484.28392	-1222.51972	804.86651	-746.10915	-1194.97556	712.50299	-745.27323	-1274.01003	405.99651	-721.29559	-1340.68216	371.79114	-681.84487	-1168.08631	351.95982	-762.28764	-1128.82740	374.69667	-705.68568	-1193.93972	626.13049	-444.14516	-1234.33769	755.78405	-442.35248	-1263.46851	645.33736	-432.88090	-1282.17077	726.89215	-756.61787	-1289.35586	604.99180	-763.80919	-1164.20632	1125.05170	-438.61298	-1156.37304	1010.56046	-444.12162	-1264.90436	999.32710	-426.48737	-1275.46278	1116.53201	-421.57880	-1211.63726	984.29607	-414.77603	-1190.13308	1072.64678	-802.89684	-1181.33258	938.21880	-771.67681	-1303.81668	1066.75752	-773.62668	-1287.88602	929.21017	-755.59488	-1151.69887	1274.72334	-482.02312	-1328.70986	1341.34757	-572.49488	-1137.16219	1256.38204	-730.93629	-1328.83608	1343.88492	-674.50240	-1242.73439	1746.38847	-635.15404	-1149.40285	1689.91338	-455.72214	-1159.46338	1699.99563	-809.00365	-1112.11214	1685.39303	-608.43990	-1100.99133	1690.98338	-646.62774	-1152.45569	1548.66896	-397.36453	-1248.74692	1352.50042	-436.87587	-1216.02167	1359.37234	-373.72398	-1146.72568	1236.27858	-377.48115	-1115.37367	1103.94629	-389.25228	-1135.80960	1097.51243	-359.81304	-1147.44424	1575.33079	-860.73276	-1227.99786	1353.84685	-797.60215	-1189.29362	1362.45848	-862.66556	-1128.36069	1265.43422	-841.42602	-1099.93387	1110.71554	-830.31613	-1119.34400	1105.67885	-854.69774	-1240.82235	1208.49237	-507.79540	-1229.48054	1199.38430	-713.75323	-1228.21729	1202.44616	-518.11430	-1228.42140	1206.54930	-683.07038	
2	0.01000000	-1196.23121	803.97796	-458.85977	-1161.29464	734.71999	-473.87704	-1263.63508	405.80867	-456.80818	-1335.49576	371.37982	-488.69385	-1159.85294	352.63024	-424.58827	-1115.63421	377.69385	-484.21638	-1220.24498	804.73898	-746.19911	-1192.99847	712.12688	-745.10401	-1273.83355	406.27365	-720.89799	-1340.60209	371.80096	-681.86669	-1168.03259	351.92484	-762.24240	-1128.77463	374.64783	-705.67842	-1193.79733	626.34165	-444.01604	-1234.19295	755.86610	-442.34943	-1263.49530	646.49384	-432.63380	-1279.99957	727.19030	-756.84157	-1287.82253	605.37853	-763.95787	-1164.06416	1125.16152	-438.68172	-1156.22530	1010.56777	-444.08643	-1264.77888	999.33017	-426.71276	-1275.22341	1116.50877	-421.87495	-1211.58634	984.35312	-414.81341	-1188.61439	1072.58085	-803.06567	-1179.35559	938.21557	-771.86011	-1302.48390	1066.16662	-773.73100	-1285.98691	928.58227	-756.30377	-1151.25352	1274.44199	-482.22856	-1328.12245	1341.52806	-572.81171	-1136.76014	1255.96761	-731.04494	-1328.12065	1343.60697	-674.42540	-1240.38153	1746.10552	-636.50063	-1147.63330	1689.57858	-456.00710	-1157.64242	1699.85290	-808.69158	-1110.36958	1685.17664	-608.50249	-1099.25041	1690.95081	-647.00981	-1150.94509	1548.38193	-397.53947	-1247.67778	1352.46419	-436.67409	-1214.88871	1359.25283	-373.55974	-1145.79612	1235.96407	-377.26431	-1114.62201	1103.65858	-389.15872	-1135.10757	1097.42687	-359.74601	-1145.75183	1575.18430	-860.99481	-1227.43763	1353.70644	-798.16910	-1188.07159	1362.42400	-862.82177	-1127.22943	1265.28916	-841.23309	-1098.86270	1110.76659	-829.64645	-1118.27110	1105.43434	-854.62958	-1240.44425	1208.39524	-507.85024	-1229.15599	1199.08724	-713.80202	-1228.13809	1202.87636	-518.12091	-1228.13723	1206.24967	-683.03317	
3	0.02000000	-1196.04822	804.01760	-458.89546	-1161.08252	734.61114	-473.72415	-1263.51229	405.91703	-456.72837	-1335.67099	371.29665	-488.77374	-1159.78575	352.55772	-424.46538	-1115.58993	377.61982	-484.10675	-1217.86836	804.55316	-746.11695	-1191.00639	711.70358	-744.63165	-1273.64443	406.43002	-720.78795	-1340.54705	371.77834	-681.82852	-1167.97815	351.87849	-762.16602	-1128.70768	374.55654	-705.66884	-1193.51306	626.50558	-443.96976	-1234.01437	755.97178	-442.35643	-1263.64794	648.29851	-432.30010	-1277.93490	727.34327	-757.02063	-1286.45006	605.56590	-763.92019	-1163.86943	1125.29415	-438.74895	-1156.05640	1010.55642	-444.11000	-1264.68341	999.33149	-426.96383	-1275.07409	1116.51418	-422.16319	-1211.49272	984.40047	-414.88968	-1187.17221	1072.42333	-803.25834	-1177.45165	938.20075	-772.00374	-1301.13250	1065.56468	-774.13901	-1284.16606	927.97459	-756.70291	-1150.86533	1274.15698	-482.45527	-1327.45919	1341.80779	-573.21070	-1136.21772	1255.52765	-731.29221	-1327.16352	1344.02031	-675.05719	-1238.17932	1745.92128	-637.06006	-1145.82987	1689.21171	-456.21473	-1155.73712	1699.71902	-808.69582	-1108.54133	1684.91262	-608.56652	-1097.45807	1690.73900	-647.19311	-1149.39779	1548.15409	-397.65526	-1246.66299	1352.28750	-436.58129	-1213.81387	1359.04932	-373.50257	-1144.88147	1235.73129	-377.11116	-1113.86756	1103.32194	-389.05319	-1134.36105	1097.19730	-359.64296	-1144.00729	1574.96572	-861.17133	-1225.78335	1353.85043	-797.99623	-1186.79644	1362.29753	-862.90572	-1126.06834	1265.16338	-841.30304	-1097.81574	1110.66029	-829.52035	-1117.24746	1105.17537	-854.24806	-1240.32116	1208.42779	-508.21347	-1228.80349	1199.03294	-714.14852	-1228.06710	1202.58106	-518.66120	-1227.59043	1206.16393	-683.59580	
4	0.03000000	-1195.73813	804.07696	-458.92923	-1160.82464	734.36553	-473.51969	-1263.57987	405.90622	-456.83513	-1335.56326	371.40159	-488.73307	-1159.72129	352.54343	-424.36556	-1115.54842	377.59215	-484.07683	-1215.60491	804.27812	-745.84004	-1189.13839	711.27915	-744.19814	-1273.44707	406.50592	-720.88833	-1340.49554	371.78404	-681.81808	-1167.91779	351.81189	-762.10657	-1128.63392	374.44078	-705.65653	-1193.09384	626.50638	-444.09781	-1233.71805	756.09681	-442.39974	-1263.65266	649.56127	-432.03302	-1276.00339	727.35078	-757.15129	-1285.14789	605.53557	-763.75572	-1163.76148	1125.36773	-438.75432	-1155.87547	1010.52252	-444.17347	-1264.56050	999.37952	-427.19983	-1274.97569	1116.57974	-422.51435	-1211.36132	984.46173	-415.03026	-1185.86399	1072.19711	-803.43652	-1175.62556	938.11469	-771.99383	-1299.79478	1064.95773	-774.83283	-1282.39830	927.39266	-756.98117	-1150.52459	1273.93853	-482.66029	-1326.76112	1342.12660	-573.59734	-1135.62363	1255.10873	-731.63296	-1326.47264	1344.64726	-675.88044	-1236.09444	1745.80368	-637.24040	-1144.01943	1688.83947	-456.36993	-1153.66846	1699.53581	-808.99802	-1106.64636	1684.54011	-608.65427	-1095.63519	1690.29035	-647.05268	-1147.83695	1547.89138	-397.68307	-1245.63397	1352.06236	-436.56792	-1212.75601	1358.81005	-373.50809	-1143.93984	1235.48396	-377.02421	-1113.09747	1102.99329	-388.99210	-1133.60694	1096.85387	-359.53699	-1142.15296	1574.70242	-861.29646	-1223.50135	1354.08613	-797.55974	-1185.41269	1362.07868	-863.06190	-1124.87179	1265.02011	-841.55037	-1096.73456	1110.44530	-829.81212	-1116.22031	1104.95593	-853.85238	-1240.27714	1208.54147	-508.64463	-1228.51465	1199.06842	-714.56242	-1227.76076	1202.13448	-519.05347	-1227.29350	1206.20149	-684.08654	
5	0.04000000	-1195.32142	804.14216	-458.91608	-1160.38109	734.24248	-473.45491	-1263.64944	405.92296	-456.95173	-1335.30992	371.58659	-488.63747	-1159.68038	352.57298	-424.31467	-1115.49720	377.55627	-484.19336	-1213.63059	803.99440	-745.61137	-1187.48866	710.89896	-744.16063	-1273.26670	406.57687	-720.97575	-1340.42222	371.87441	-681.94085	-1167.85878	351.74022	-762.09672	-1128.57337	374.35090	-705.64879	-1192.65244	626.35402	-444.40484	-1233.23264	756.22125	-442.43818	-1263.37617	649.69395	-431.95065	-1274.20839	727.29840	-757.25849	-1283.81253	605.43801	-763.72228	-1163.74001	1125.36795	-438.79649	-1155.67036	1010.50132	-444.29493	-1264.36372	999.42949	-427.43996	-1274.87272	1116.67787	-422.92106	-1211.21187	984.55354	-415.22863	-1184.68114	1071.95569	-803.60611	-1173.91984	937.94934	-771.87609	-1298.56473	1064.34324	-775.39850	-1280.69429	926.84567	-757.37591	-1150.21437	1273.76130	-482.86675	-1326.12522	1342.38221	-573.94641	-1135.11068	1254.74070	-731.90910	-1326.09659	1344.73533	-676.13265	-1234.02498	1745.66283	-637.61021	-1142.19790	1688.46916	-456.49009	-1151.48548	1699.26124	-809.33044	-1104.73390	1684.08528	-608.77169	-1093.76541	1689.75897	-646.89424	-1146.30406	1547.49050	-397.74949	-1244.56330	1351.95293	-436.43634	-1211.63621	1358.64777	-373.39768	-1142.94598	1235.13387	-377.01589	-1112.29560	1102.68636	-388.94856	-1132.83518	1096.57023	-359.44887	-1140.17392	1574.42229	-861.40566	-1222.15523	1353.91292	-797.97179	-1183.92016	1361.85938	-863.39077	-1123.59185	1264.79349	-841.70888	-1095.57254	1110.20623	-829.93995	-1115.03681	1104.85732	-854.01522	-1240.05878	1208.57268	-508.85501	-1228.26678	1198.94000	-714.76373	-1227.38835	1202.31632	-518.94202	-1227.34005	1206.11234	-684.04368	
6	0.05000000	-1194.82930	804.17410	-458.92008	-1159.76344	734.36719	-473.66168	-1263.47969	406.13141	-456.84697	-1335.21036	371.68019	-488.61113	-1159.66106	352.60277	-424.30914	-1115.43920	377.50510	-484.28555	-1211.84705	803.74419	-745.65042	-1186.01961	710.60565	-744.40694	-1273.12362	406.63551	-720.99174	-1340.35393	371.98818	-682.11460	-1167.81996	351.69606	-762.10896	-1128.52894	374.29169	-705.63620	-1192.22942	626.25284	-444.71056	-1232.64456	756.31918	-442.42736	-1263.01720	649.62939	-432.00374	-1272.62684	727.21956	-757.34088	-1282.60361	605.34400	-763.86350	-1163.62111	1125.43363	-439.09064	-1155.41850	1010.53421	-444.50864	-1264.12056	999.39601	-427.75829	-1274.80009	1116.69367	-423.31093	-1211.01606	984.60865	-415.47638	-1183.58731	1071.75955	-803.82618	-1172.43279	937.79197	-771.87471	-1297.47797	1063.75152	-775.70881	-1279.15751	926.34463	-757.79169	-1149.93745	1273.50982	-483.13573	-1325.57223	1342.58660	-574.43955	-1134.60967	1254.33023	-732.13565	-1325.35772	1344.53583	-676.20273	-1231.92896	1745.46777	-638.04524	-1140.33672	1688.03557	-456.62892	-1149.27070	1698.94181	-809.55729	-1102.81095	1683.62625	-608.97090	-1091.82369	1689.24542	-647.04428	-1144.77568	1547.03721	-398.00212	-1243.43460	1351.86780	-436.22532	-1210.45569	1358.53642	-373.19800	-1141.93038	1234.75865	-377.07994	-1111.45444	1102.31798	-388.82972	-1131.98662	1096.40915	-359.34520	-1138.11566	1574.11656	-861.58369	-1221.92325	1353.29517	-799.15435	-1182.38125	1361.66057	-863.73105	-1122.18645	1264.48126	-841.77125	-1094.35918	1109.89640	-829.74857	-1113.64739	1104.79150	-854.60380	-1239.79544	1208.49941	-509.05360	-1227.90937	1198.69162	-714.94857	-1227.39099	1202.68568	-519.10469	-1227.04152	1205.84133	-684.20762	
